PathFileType	4	(X/Y/Z)	OpenSim_Sub07_EMGStiffKnee_Accel.trc
DataRate	CameraRate	NumFrames	NumMarkers	Units	OrigDataRate	OrigDataStartFrame	OrigNumFrames
100	100	27	8	m	100	5542	7388
Frame#	Time	torso_imu_offset_imu	pelvis_imu_offset_imu	tibia_r_imu_offset_imu	femur_r_imu_offset_imu	tibia_l_imu_offset_imu	femur_l_imu_offset_imu	toes_r_imu_offset_imu	toes_l_imu_offset_imu
				X1	Y1	Z1	X2	Y2	Z2	X3	Y3	Z3	X4	Y4	Z4	X5	Y5	Z5	X6	Y6	Z6	X7	Y7	Z7	X8		Y8	Z8	

5542	55.41000000	-8.46814017	0.41952275	5.95973157	9.23816552	0.32099966	3.60521466	3.92404904	4.72680441	0.09905454	10.15045202	-1.32708581	2.03478521	9.51632663	-2.64966137	-0.17699398	9.24336222	1.79878908	-2.26859678	2.47069359	-2.00260910	6.17465003	5.65618640	1.20367725	10.70340996
5543	55.42000000	-8.35109143	0.34601014	5.93157232	8.99747064	0.37319015	3.50747426	3.83719024	3.87120669	-0.69712602	9.78141469	-1.27131693	2.02815142	9.55723568	-2.42585108	-0.19678720	9.02591187	1.42969729	-2.27077941	2.43793336	-2.09924739	6.03307290	5.47305579	1.43133290	10.82954472
5544	55.43000000	-8.28713655	0.25836628	5.87319850	9.00871631	0.96427759	3.37528493	3.85469633	3.20491047	-1.17505026	9.50919353	-1.24730535	1.96280631	9.34399809	-2.40058282	-0.30410839	9.01735783	1.08608430	-2.25851036	3.58853547	-1.86020657	6.51426171	5.36227837	1.55744923	10.95019527
5545	55.44000000	-8.28753670	0.22017236	5.93168628	8.67109389	0.73535402	3.30614528	4.24755157	3.81200293	-1.46345403	9.20791531	-1.42768178	1.83143119	9.24575337	-2.47847641	-0.30479532	9.13150690	0.79619162	-2.08046285	4.71083986	-1.20507244	7.16506772	5.68314655	1.48851736	10.55361877
5546	55.45000000	-8.26631356	0.20331363	6.00211203	8.71297241	0.76660850	3.19873267	4.70914875	5.19728642	-1.45444759	8.94210826	-1.62352168	1.75031277	9.31967737	-2.80017961	-0.31740470	9.10843250	0.45631813	-1.94708020	5.14856120	0.02967308	7.66058138	5.60676898	1.57334715	10.65821239
5547	55.46000000	-8.29317587	0.18071891	6.05901951	8.72633921	0.52559746	3.18610066	4.90235694	5.74560678	-1.17998825	8.65599352	-1.80849048	1.70662954	9.38357091	-2.76178376	-0.21928640	9.02326431	-0.00118409	-1.97809642	5.17531662	1.54637233	8.03956122	5.60142822	1.63268252	10.85369895
5548	55.47000000	-8.37027701	0.14089137	6.06493846	8.81446406	0.25576593	3.21016074	4.90387439	5.52982805	-1.19691485	8.36832184	-1.97248831	1.64388083	9.31148614	-2.46575060	-0.07304494	9.06164571	-0.13351335	-2.02955977	5.56453427	2.56536251	8.36484759	5.25301233	1.43154153	10.92062144
5549	55.48000000	-8.39960958	0.13477245	6.13061842	8.88485602	-0.02154854	3.15449890	4.83798044	5.35758326	-1.65671486	8.07617507	-2.09350488	1.54431356	9.30636581	-2.19713624	0.05745102	9.10511572	-0.25326056	-2.04139747	6.33684341	2.82479037	8.72472635	5.63258653	1.33264648	10.64459789
5550	55.49000000	-8.45981405	0.12702820	6.28110453	8.99235691	-0.22398933	3.10466634	4.87310180	5.52206482	-2.17827149	7.88734544	-1.92587904	1.40424440	9.27484908	-2.17737362	0.05376591	9.05525989	-0.49446067	-2.00837396	7.36630155	2.72743796	8.97959767	5.88092269	1.12196439	10.55593656
5551	55.50000000	-8.51024264	0.13763740	6.43819894	9.01724053	-0.53654229	3.15120802	5.05585629	5.61606627	-2.37181513	7.90874217	-1.50727418	1.26837480	9.42222361	-2.12509311	-0.06762138	9.02465416	-0.58203117	-1.98254749	7.98510411	2.73561808	8.86203968	5.79887933	1.14722531	10.55224538
5552	55.51000000	-8.53963539	0.10510001	6.47375419	9.15774534	-0.48513829	3.20374821	5.10525194	5.42427739	-2.82417722	8.03065653	-1.22639500	1.10952735	9.65102161	-1.93698397	-0.15124370	9.07114020	-0.25628508	-2.05625768	7.46653607	3.15700185	8.25588071	5.39008585	1.36804233	10.84878856
5553	55.52000000	-8.53673728	0.09805748	6.48163754	9.25174907	-0.37113920	3.19401645	5.33708517	5.64428015	-2.69123791	8.06050215	-1.09591545	0.90035455	9.58852198	-1.71146777	-0.23948197	9.16063893	-0.05858739	-2.13669465	6.80953392	3.45191190	7.67008208	5.78692622	1.25881780	10.67044174
5554	55.53000000	-8.41090410	0.16868581	6.40319864	9.03788516	-0.61559602	3.11027134	6.70870047	7.63886517	-1.68259966	8.02661267	-0.81391261	0.67425429	9.63539305	-1.91973839	-0.46895850	9.19560551	0.05456162	-2.20761311	7.25697327	3.32847868	7.71746122	5.72892034	1.25797236	10.41506284
5555	55.54000000	-8.38749972	0.19261176	6.20251911	8.94127359	-0.45492519	2.92377103	7.67204568	10.51728402	-1.54107569	7.88405812	-0.33580786	0.44409013	9.90547666	-1.93627295	-0.57330155	9.31462318	0.27767866	-2.24957878	8.21923828	3.93037411	7.97742784	5.03194643	1.68591995	10.94531597
5556	55.55000000	-8.44002024	0.22786279	6.22547546	8.73805719	-0.67820069	2.69730645	7.12400888	12.41755948	-3.39522298	7.54274284	0.06783863	0.15212187	10.03403730	-1.81739004	-0.58509718	9.53493395	0.42707451	-2.25979473	8.84281403	4.92284411	8.78427217	5.06690479	1.77261652	11.11446113
5557	55.56000000	-8.57385489	0.24533402	6.06126001	8.73011100	-0.72545857	2.37326189	6.31518165	12.58330836	-4.71243854	7.04430211	0.66687929	-0.06968340	10.14169569	-1.65102691	-0.76542146	9.83104716	0.10821783	-2.13579777	12.34337056	4.99566663	10.83354935	5.17584849	1.58566779	11.03026225
5558	55.57000000	-8.76300533	0.21797496	5.93273312	8.71922306	-0.80247641	2.20997275	5.82485151	11.17299220	-4.58725654	6.56175419	1.37728543	-0.08181137	10.34738741	-1.30673054	-0.71426051	9.96285987	0.24312432	-2.08532985	17.99152519	4.90033986	11.82448214	5.41309094	1.50215784	10.90741123
5559	55.58000000	-8.95430609	0.09632709	5.85212463	8.69553455	-0.76092290	2.14025105	6.57985089	8.57543826	-4.54997741	6.31597622	1.96600259	0.09931520	10.31910275	-0.96782478	-0.39688356	9.84842718	0.85501632	-2.11230715	19.86415657	4.68885123	9.99198431	5.50270748	1.34493781	10.88670672
5560	55.59000000	-9.06648370	0.05285995	5.73707756	8.64426652	-0.57049080	2.07068213	8.39428597	5.02092918	-4.18134278	6.46275786	1.58813141	0.42595086	10.28030889	-0.49794640	-0.10362361	9.68203538	1.44979651	-2.03186240	19.25805905	2.80411295	6.91281003	5.44441734	1.34003612	10.97690647
5561	55.60000000	-9.19398289	0.04219015	5.65156873	8.71986850	-0.26178004	1.84627932	9.86805243	1.72173347	-2.83465224	7.00599551	-1.60028196	0.82150512	10.43820730	-0.13104752	0.03643448	9.59285080	2.28625789	-1.90141208	20.17813543	-0.14609949	4.65312212	5.13864237	1.27283027	11.15269073
5562	55.61000000	-9.39373950	-0.03915397	5.67733350	8.86029948	-0.00503959	1.59569913	10.13433364	0.14630168	-1.12499802	7.64772817	-5.13194272	1.10689172	10.39230261	-0.21869188	0.06645713	9.46286068	2.56368901	-1.77390227	21.96757313	-2.75813556	3.37201041	5.52715795	1.09004725	11.01022829
5563	55.62000000	-9.52871067	-0.08079932	5.77692365	8.98715378	0.11621145	1.49239739	9.70075490	0.75171554	-0.34508511	8.17955700	-7.08204219	0.79288195	10.32752492	-0.71685932	-0.04395300	9.39768069	2.77531272	-1.78754397	22.74925094	-3.40713085	1.89482877	5.83496035	1.00035293	10.83243223
5564	55.63000000	-9.55390031	-0.09502290	5.75887932	9.06303000	0.22302607	1.58132454	9.28593899	2.53128348	-0.39850840	8.49603934	-9.44158726	0.16890481	10.59657173	-1.05385413	-0.14206251	9.52245083	2.76133432	-1.76398369	21.63661692	-3.00226684	-0.18800799	5.49834755	1.01712473	11.06369942
5565	55.64000000	-9.51293326	-0.12565241	5.63059681	9.05819167	0.33116221	1.58363061	8.97281777	3.79453727	-1.20381669	8.67520751	-11.17009544	-0.16711128	10.81504622	-1.05928679	-0.06567344	9.76837633	2.75295817	-1.64432055	19.73950786	-2.56556513	-2.21964560	5.06473905	1.10468998	11.25151021
5566	55.65000000	-9.42146893	-0.17047580	5.60199679	9.02926767	0.27609890	1.36694637	8.25698380	3.42465001	-1.36343469	8.82593028	-11.16764792	-0.72524424	10.77359072	-0.71285063	0.05898794	9.92578868	2.61933715	-1.53529243	18.79809597	-2.01739593	-3.66905392	5.42804520	0.95551164	11.15928902
5567	55.66000000	-9.27900787	-0.18574134	5.67590101	9.04608481	0.10772555	1.07327262	7.40067071	2.20829989	-0.25262154	9.37934825	-10.64750594	-2.46603828	10.76646558	-0.42062849	0.11067366	9.73940522	2.46322999	-1.39958754	19.36405638	-1.23885060	-4.73188707	5.80933314	0.46757179	10.76583453
5568	55.67000000	-9.34294967	-0.11457178	5.94398508	9.14695109	-0.16169299	0.84703458	6.79363263	1.47850281	0.28186072	9.56451421	-9.90760093	-4.41536062	10.67972689	-0.13644430	0.18652238	9.35180862	2.41780165	-1.28055953	18.53617347	-0.56157102	-4.07761743	5.57808842	0.36497029	10.75504002
